<svg xmlns="http://www.w3.org/2000/svg" viewBox="0 0 1600 900" role="img" aria-labelledby="title desc">
  <title id="title">Rinascita — Mappa strategica del seed 7568542259593820684</title>
  <desc id="desc">Panoramica statica del settore iniziale del seed Bedrock con il Villaggio dei Ciliegi, villaggi vicini, Trial Chambers e portali in rovina.</desc>
  <defs>
    <linearGradient id="bg" x1="0" y1="0" x2="1" y2="1"><stop stop-color="#102b47"/><stop offset="1" stop-color="#061523"/></linearGradient>
    <linearGradient id="water" x1="0" y1="0" x2="0" y2="1"><stop stop-color="#1f78ae"/><stop offset="1" stop-color="#0d3558"/></linearGradient>
    <pattern id="grid" width="80" height="80" patternUnits="userSpaceOnUse"><path d="M80 0H0V80" fill="none" stroke="#79b9d0" stroke-opacity=".13" stroke-width="2"/></pattern>
    <pattern id="plains" width="38" height="38" patternUnits="userSpaceOnUse"><rect width="38" height="38" fill="#62bd63"/><path d="M0 28l14-8 12 5 12-7v20H0z" fill="#55a957" opacity=".7"/></pattern>
    <pattern id="cherry" width="38" height="38" patternUnits="userSpaceOnUse"><rect width="38" height="38" fill="#df94bd"/><circle cx="8" cy="10" r="4" fill="#ffd3e8"/><circle cx="25" cy="19" r="5" fill="#f7b8d8"/><circle cx="17" cy="31" r="3" fill="#ffd7ec"/></pattern>
    <pattern id="forest" width="34" height="34" patternUnits="userSpaceOnUse"><rect width="34" height="34" fill="#177c4c"/><path d="M17 4l12 22H5z" fill="#1c9658"/><rect x="14" y="22" width="6" height="8" fill="#85563d"/></pattern>
    <pattern id="snow" width="46" height="46" patternUnits="userSpaceOnUse"><rect width="46" height="46" fill="#d7ecf4"/><path d="M0 33l12-11 8 7 10-14 16 18v13H0z" fill="#a9c9d9"/></pattern>
    <filter id="shadow" x="-30%" y="-30%" width="160%" height="160%"><feDropShadow dx="0" dy="8" stdDeviation="9" flood-color="#02070d" flood-opacity=".55"/></filter>
    <filter id="glow"><feGaussianBlur stdDeviation="8" result="b"/><feMerge><feMergeNode in="b"/><feMergeNode in="SourceGraphic"/></feMerge></filter>
    <style>
      .t{font-family:Inter,system-ui,sans-serif;fill:#e9f7ff}.muted{font-family:Inter,system-ui,sans-serif;fill:#94bdcb}.small{font-size:20px}.label{font-size:25px;font-weight:800}.meta{font-size:17px;font-weight:700}.micro{font-size:14px;font-weight:700;letter-spacing:2px}.halo{paint-order:stroke;stroke:#071321;stroke-width:4;stroke-linejoin:round}.marker{filter:url(#shadow)}
    </style>
  </defs>

  <rect width="1600" height="900" fill="url(#bg)"/>
  <rect x="42" y="42" width="1516" height="816" rx="28" fill="#071b2b" stroke="#2d7da5" stroke-width="3"/>
  <rect x="72" y="112" width="1456" height="690" rx="22" fill="url(#water)" stroke="#4cb7e8" stroke-width="2"/>
  <rect x="72" y="112" width="1456" height="690" rx="22" fill="url(#grid)"/>

  <!-- Coordinate frame -->
  <g class="muted small" text-anchor="middle">
    <text x="135" y="99">-100</text><text x="320" y="99">0</text><text x="505" y="99">150</text><text x="690" y="99">300</text><text x="875" y="99">450</text><text x="1060" y="99">600</text><text x="1245" y="99">750</text><text x="1430" y="99">900</text>
  </g>
  <g class="muted small" text-anchor="end">
    <text x="60" y="205">250</text><text x="60" y="345">100</text><text x="60" y="485">-50</text><text x="60" y="625">-200</text><text x="60" y="765">-350</text>
  </g>
  <text x="110" y="82" class="micro muted">SETTORE INIZIALE · OVERWORLD</text>
  <text x="1450" y="82" class="micro muted" text-anchor="end">BEDROCK 26.44 · STATIC SEED OVERVIEW</text>

  <!-- Terrain masses: overview based on known seed area -->
  <path d="M110 240c70-70 170-70 255-18 40 25 74 22 112-9 70-57 165-65 242-9 43 31 86 35 126 2 67-55 165-63 245-5 72 52 143 52 226 6 82-46 150-38 202 8v180c-83 44-158 55-235 22-78-34-145-20-220 25-72 44-151 44-230 0-61-34-130-34-195 2-78 43-153 44-226-6-69-48-143-53-213-15-55 30-101 33-142 10z" fill="url(#plains)" opacity=".96"/>
  <path d="M110 240c70-70 170-70 255-18 40 25 74 22 112-9 70-57 165-65 242-9" fill="none" stroke="#78d36b" stroke-width="18" opacity=".5"/>

  <!-- Cherry ring around main village -->
  <path d="M430 505c-58-49-66-126-23-190 51-76 159-95 244-46 78 45 105 146 60 226-50 88-170 119-258 65-7-4-15-9-23-15zm87-67c43 32 107 20 137-25 30-44 20-104-23-136-48-36-116-24-149 24-34 49-18 107 35 137z" fill="url(#cherry)" stroke="#ffb5dc" stroke-width="6"/>
  <path d="M502 420c20-17 49-20 74-7 13 7 25 17 33 31" fill="none" stroke="#ffe3f0" stroke-width="4" opacity=".8"/>

  <!-- Snowy highlands -->
  <path d="M920 154l104-43 99 36 95-30 119 59-29 126-90 55-95-43-78 37-97-58z" fill="url(#snow)" stroke="#e7f8ff" stroke-width="5" opacity=".95"/>
  <path d="M1120 152l55-44 58 31 42 51-31 29-55-21-34 27-48-31z" fill="#f4fbff" opacity=".7"/>

  <!-- Forest pockets -->
  <path d="M117 598c70-50 145-38 193 23 25 31 62 35 99 11 52-34 117-28 156 18l-24 113c-80 41-159 31-225-24-42-35-86-38-129-10-32 20-58 24-77 15z" fill="url(#forest)" stroke="#38aa67" stroke-width="5"/>
  <path d="M1242 490c66-43 135-30 173 29 17 27 48 37 83 24l24 108c-57 42-121 43-180 5-42-27-82-25-118 5z" fill="url(#forest)" stroke="#38aa67" stroke-width="5"/>

  <!-- Nearby plains village area -->
  <path d="M1170 378c90-54 182-43 252 26 40 39 73 42 106 13v141c-76 31-150 25-217-20-54-36-101-37-141-2z" fill="#77c765" stroke="#9fe287" stroke-width="5" opacity=".92"/>

  <!-- Waterways -->
  <path d="M98 332c94 20 157 5 231-36 76-42 146-40 217 4 78 48 150 52 229 13 81-40 153-36 219 12 86 63 180 73 270 31 91-42 172-43 264-7" fill="none" stroke="#7ac6e8" stroke-opacity=".35" stroke-width="30"/>
  <path d="M88 701c106-30 198-14 278 48 66 51 134 58 203 17 78-47 154-49 232-7 72 39 141 41 206 5 84-47 166-48 245-5" fill="none" stroke="#7ac6e8" stroke-opacity=".25" stroke-width="22"/>

  <!-- Compass -->
  <g transform="translate(1450 150)" filter="url(#shadow)">
    <circle r="52" fill="#0a2134" stroke="#77c6e7" stroke-width="3"/><path d="M0-36l15 34L0 36-15-2z" fill="#f3f9fb"/><path d="M0-36l15 34H0z" fill="#ff5a4f"/><text y="-64" text-anchor="middle" class="t meta">N</text>
  </g>

  <!-- Markers -->
  <!-- Main village -->
  <g class="marker" transform="translate(565 398)">
    <circle r="39" fill="#ffb52e" opacity=".22" filter="url(#glow)"/>
    <path d="M0-36C-24-36-43-17-43 7c0 34 43 71 43 71S43 41 43 7C43-17 24-36 0-36z" fill="#ffb52e" stroke="#fff0bd" stroke-width="4"/>
    <path d="M-18 9l18-16 18 16v20H-18z" fill="#fff3c9" stroke="#73482f" stroke-width="3"/><path d="M-23 8L0-12 23 8" fill="none" stroke="#73482f" stroke-width="5"/>
  </g>
  <g class="t"><text x="635" y="374" class="label">Villaggio dei Ciliegi</text><text x="635" y="404" class="meta muted">X 344 · Z -312 · prima tappa</text></g>

  <!-- Trial 1 -->
  <g class="marker" transform="translate(526 516)"><circle r="21" fill="#16e0ff" stroke="#d9fbff" stroke-width="4"/><path d="M-9 12V-8l9-8 9 8v20" fill="#0b263a" stroke="#9ceaff" stroke-width="3"/></g>
  <g class="t"><text x="556" y="515" class="label">Trial Chamber</text><text x="556" y="542" class="meta muted">X 311 · Y -28 · Z -425</text></g>

  <!-- Portal 1 -->
  <g class="marker" transform="translate(590 690)"><rect x="-17" y="-28" width="34" height="56" rx="4" fill="#7b43c7" stroke="#e0b5ff" stroke-width="5"/><rect x="-7" y="-18" width="14" height="36" fill="#2a0b48"/></g>
  <g class="t"><text x="625" y="686" class="label">Portale in rovina</text><text x="625" y="713" class="meta muted">X 344 · Z -584</text></g>

  <!-- Trial 2 -->
  <g class="marker" transform="translate(1088 546)"><circle r="21" fill="#4d9eff" stroke="#d9efff" stroke-width="4"/><path d="M-9 12V-8l9-8 9 8v20" fill="#0b263a" stroke="#d7eeff" stroke-width="3"/></g>
  <g class="t"><text x="1118" y="545" class="label">Trial Chamber Est</text><text x="1118" y="572" class="meta muted">X 713 · Y -14 · Z -457</text></g>

  <!-- Portal 2 -->
  <g class="marker" transform="translate(1090 592)"><rect x="-17" y="-28" width="34" height="56" rx="4" fill="#8b5be0" stroke="#e0b5ff" stroke-width="5"/><rect x="-7" y="-18" width="14" height="36" fill="#2a0b48"/></g>

  <!-- Village 2 -->
  <g class="marker" transform="translate(1248 420)"><path d="M0-27L25-5v31H-25V-5z" fill="#fff0c7" stroke="#6d422f" stroke-width="4"/><path d="M-30-5L0-33 30-5" fill="none" stroke="#6d422f" stroke-width="6"/></g>
  <g class="t"><text x="1290" y="394" class="label">Villaggio delle Pianure</text><text x="1290" y="421" class="meta muted">X 792 · Z -344</text></g>

  <!-- Nearby villages from seed listings -->
  <g class="marker" transform="translate(355 225)"><path d="M0-20L19-4v24H-19V-4z" fill="#fff0c7" stroke="#6d422f" stroke-width="3"/><path d="M-23-4L0-25 23-4" fill="none" stroke="#6d422f" stroke-width="5"/></g>
  <g class="t"><text x="382" y="222" class="label">Villaggio vicino</text><text x="382" y="247" class="meta muted">circa X 130 · Z 260</text></g>

  <g transform="translate(80 815)">
    <rect width="690" height="68" rx="16" fill="#071321" stroke="#275f79" stroke-width="2"/>
    <text x="24" y="27" class="t meta">LETTURA RAPIDA DEL SETTORE</text>
    <text x="24" y="51" class="muted small">Rosa = Cherry Grove · Verde = pianure/foreste · Bianco = montagne innevate · Blu = acqua</text>
  </g>
  <g transform="translate(1050 815)">
    <rect width="478" height="68" rx="16" fill="#071321" stroke="#275f79" stroke-width="2"/>
    <text x="24" y="27" class="t meta">SEED 7568542259593820684</text>
    <text x="24" y="51" class="muted small">Usa questa vista per orientarti, poi verifica sul seed map completo.</text>
  </g>
</svg>
